<?xml version="1.0" encoding="UTF-8"?>
<svg id="_レイヤー_2" data-name="レイヤー 2" xmlns="http://www.w3.org/2000/svg" width="89.25mm" height="32.81mm" viewBox="0 0 253 93">
  <defs>
    <style>
      .cls-1 {
        fill: #231815;
        stroke-width: 0px;
      }

      .cls-2 {
        fill: none;
        stroke: #231815;
        stroke-width: 3px;
      }
    </style>
  </defs>
  <g id="_レイヤー_2-2" data-name="レイヤー 2">
    <g>
      <rect class="cls-2" x="1.5" y="1.5" width="250" height="90"/>
      <g>
        <path class="cls-1" d="M57.16,41.7c0,2.52-.81,4.8-2.44,6.83-1.63,2.04-3.8,3.42-6.52,4.14-1.17.31-2.45.54-3.84.67-1.39.14-2.93.21-4.64.21l.05,10.95h-4.27c.02-1.04.04-2.95.08-5.76.03-2.8.05-7.14.05-13,0-1.86,0-4.15-.03-6.86-.02-2.71-.05-5.72-.1-9.03.74-.02,1.47-.03,2.18-.03h1.74c2.98,0,5.52.19,7.61.57,2.09.38,3.86,1.03,5.29,1.94,1.57.98,2.77,2.26,3.59,3.84.83,1.58,1.24,3.42,1.24,5.52ZM52.76,41.7c0-1.78-.41-3.29-1.22-4.54-.81-1.25-2.05-2.24-3.73-2.96-1.04-.45-2.16-.73-3.36-.84-1.21-.11-2.45-.17-3.73-.17h-.96c0,.19-.02,1.48-.05,3.88-.03,2.4-.05,4.3-.05,5.69,0,1.28,0,2.79.01,4.53,0,1.74.01,2.73.01,2.98h1.04c1.16,0,2.38-.08,3.69-.23,1.3-.16,2.42-.44,3.35-.85,1.62-.69,2.86-1.65,3.71-2.87.85-1.22,1.28-2.76,1.28-4.61Z"/>
        <path class="cls-1" d="M82.41,51c0,1.81-.32,3.55-.97,5.2s-1.58,3.07-2.8,4.24c-1.03.98-2.18,1.73-3.43,2.25s-2.68.77-4.28.77c-1.5,0-2.91-.25-4.22-.76s-2.48-1.25-3.52-2.24c-1.19-1.14-2.11-2.55-2.75-4.22s-.97-3.44-.97-5.3.28-3.45.83-4.96,1.42-2.86,2.59-4.07c1.05-1.09,2.27-1.93,3.66-2.52s2.86-.88,4.41-.88c1.62,0,3.1.27,4.42.81s2.5,1.35,3.53,2.43c1.19,1.23,2.07,2.62,2.65,4.16s.87,3.23.87,5.07ZM78.66,51.17c0-1.47-.24-2.9-.71-4.29s-1.21-2.56-2.21-3.52c-.61-.59-1.33-1.05-2.17-1.37s-1.71-.48-2.61-.48c-1.08,0-2.02.17-2.81.52s-1.55.88-2.25,1.62c-.83.84-1.48,1.92-1.96,3.23s-.71,2.67-.71,4.08c0,1.59.24,3.06.73,4.39s1.27,2.49,2.34,3.46c.61.55,1.31.96,2.11,1.25s1.64.43,2.53.43c.98,0,1.9-.17,2.75-.52s1.6-.84,2.24-1.5c.89-.91,1.57-2,2.04-3.28s.7-2.62.7-4.03Z"/>
        <path class="cls-1" d="M102.59,41.91c-.86.2-2.18.63-3.95,1.29s-3.82,1.53-6.13,2.62c0,.17,0,.96-.02,2.36s-.02,2.7-.02,3.9c0,1.84.02,4.03.06,6.56s.06,3.94.06,4.22h-3.7c0-.27.02-1.14.05-2.62s.05-4.02.05-7.62c0-1.45,0-3.48-.02-6.09s-.04-5.07-.07-7.38h3.63v3.56l.02.02c1.77-1,3.51-1.87,5.23-2.6s3.09-1.23,4.12-1.5l.7,3.28Z"/>
        <path class="cls-1" d="M120.24,59.96l-.42,2.98c-.11.02-.38.03-.81.05s-.8.02-1.11.02c-3.2,0-5.62-.67-7.27-2s-2.46-3.39-2.46-6.15c0-1.73.01-3.59.04-5.58s.04-4.45.04-7.38h-3.94v-2.74h4.15v-5.55h3.4v5.55h8.39v2.74h-8.39c0,.33-.01,1.3-.04,2.93s-.04,2.83-.04,3.61v5.81c0,2.03.55,3.5,1.64,4.39s2.78,1.35,5.06,1.35c.28,0,.62,0,1.01-.01s.64-.01.75-.01Z"/>
        <path class="cls-1" d="M139.74,31.5h-1.17c-1.47,0-2.62.13-3.47.4s-1.6.72-2.27,1.35c-.52.48-.91,1.15-1.18,2-.27.85-.41,1.79-.41,2.84v1.05h7.97v2.74h-7.97c0,5.06.01,9.76.04,14.1s.04,6.63.04,6.88h-3.7c0-.25.02-2.45.05-6.6s.05-8.94.05-14.38h-4.62v-2.74h4.62v-1.15c0-1.37.18-2.6.54-3.68s.99-2.1,1.9-3.05c.78-.81,1.82-1.47,3.12-1.99s2.89-.77,4.78-.77h1.27l.45,3Z"/>
        <path class="cls-1" d="M164.63,51c0,1.81-.32,3.55-.97,5.2s-1.58,3.07-2.8,4.24c-1.03.98-2.18,1.73-3.43,2.25s-2.68.77-4.28.77c-1.5,0-2.91-.25-4.22-.76s-2.48-1.25-3.52-2.24c-1.19-1.14-2.11-2.55-2.75-4.22s-.97-3.44-.97-5.3.28-3.45.83-4.96,1.42-2.86,2.59-4.07c1.05-1.09,2.27-1.93,3.66-2.52s2.86-.88,4.41-.88c1.62,0,3.1.27,4.42.81s2.5,1.35,3.53,2.43c1.19,1.23,2.07,2.62,2.65,4.16s.87,3.23.87,5.07ZM160.88,51.17c0-1.47-.24-2.9-.71-4.29s-1.21-2.56-2.21-3.52c-.61-.59-1.33-1.05-2.17-1.37s-1.71-.48-2.61-.48c-1.08,0-2.02.17-2.81.52s-1.55.88-2.25,1.62c-.83.84-1.48,1.92-1.96,3.23s-.71,2.67-.71,4.08c0,1.59.24,3.06.73,4.39s1.27,2.49,2.34,3.46c.61.55,1.31.96,2.11,1.25s1.64.43,2.53.43c.98,0,1.9-.17,2.75-.52s1.6-.84,2.24-1.5c.89-.91,1.57-2,2.04-3.28s.7-2.62.7-4.03Z"/>
        <path class="cls-1" d="M175.06,62.86h-3.7c.02-.19.04-2.47.06-6.86s.04-8.02.04-10.91c0-1.86,0-4.21-.01-7.04s-.04-6.02-.08-9.55h3.7c-.03,2.41-.05,5.19-.07,8.36s-.02,5.83-.02,8c0,4.73.02,8.88.05,12.42s.05,5.41.05,5.58Z"/>
        <path class="cls-1" d="M188.07,34.6h-4.12v-4.03h4.12v4.03ZM187.86,62.86h-3.7c.02-.25.04-1.79.06-4.62s.04-5.16.04-7.01c0-1.61,0-3.38-.01-5.31s-.04-4.19-.08-6.79h3.7c-.03,2.25-.06,4.36-.08,6.32s-.04,3.71-.04,5.24c0,3.64.02,6.56.06,8.77s.06,3.34.06,3.4Z"/>
        <path class="cls-1" d="M217.51,51c0,1.81-.32,3.55-.97,5.2s-1.58,3.07-2.8,4.24c-1.03.98-2.18,1.73-3.43,2.25s-2.68.77-4.28.77c-1.5,0-2.91-.25-4.22-.76s-2.48-1.25-3.52-2.24c-1.19-1.14-2.11-2.55-2.75-4.22s-.97-3.44-.97-5.3.28-3.45.83-4.96,1.42-2.86,2.59-4.07c1.05-1.09,2.27-1.93,3.66-2.52s2.86-.88,4.41-.88c1.62,0,3.1.27,4.42.81s2.5,1.35,3.53,2.43c1.19,1.23,2.07,2.62,2.65,4.16s.87,3.23.87,5.07ZM213.76,51.17c0-1.47-.24-2.9-.71-4.29s-1.21-2.56-2.21-3.52c-.61-.59-1.33-1.05-2.17-1.37s-1.71-.48-2.61-.48c-1.08,0-2.02.17-2.81.52s-1.55.88-2.25,1.62c-.83.84-1.48,1.92-1.96,3.23s-.71,2.67-.71,4.08c0,1.59.24,3.06.73,4.39s1.27,2.49,2.34,3.46c.61.55,1.31.96,2.11,1.25s1.64.43,2.53.43c.98,0,1.9-.17,2.75-.52s1.6-.84,2.24-1.5c.89-.91,1.57-2,2.04-3.28s.7-2.62.7-4.03Z"/>
      </g>
    </g>
  </g>
</svg>